<svg width="64" height="64" viewBox="0 0 64 64" fill="none" xmlns="http://www.w3.org/2000/svg">
<path d="M32.0001 62.0416C15.4369 62.0416 1.95853 48.4864 1.95853 31.8208C1.95853 15.1552 15.4369 1.6 32.0001 1.6C48.5633 1.6 62.0417 15.1552 62.0417 31.8208C62.0417 48.4864 48.5633 62.0416 32.0001 62.0416ZM32.0001 4.5184C17.0369 4.5184 4.85133 16.768 4.85133 31.8208C4.85133 46.8736 17.0241 59.1232 32.0001 59.1232C46.9761 59.1232 59.1489 46.8736 59.1489 31.8208C59.1489 16.768 46.9633 4.5184 32.0001 4.5184Z" fill="#F5F5F5"/>
<path d="M29.1585 14.8351C29.1457 17.7791 29.1457 20.8639 29.1585 23.8079C29.1585 23.9359 29.1585 24.2303 29.1585 24.2303C29.1585 24.2303 29.4273 24.0127 29.5297 23.9231C32.6401 21.1839 36.9281 20.1087 40.8065 21.9007C44.3009 23.5135 46.6049 27.1871 46.6177 31.0271C46.6177 33.4719 46.6177 35.9167 46.6177 38.3615C46.6177 41.2031 46.6177 44.0319 46.6305 46.8735C46.6305 47.2063 46.5409 47.2831 46.2209 47.2703C45.6193 47.2447 45.0177 47.2575 44.4161 47.2703C44.1729 47.2703 44.0705 47.2191 44.0705 46.9375C44.0705 46.3871 44.0705 45.8495 44.0705 45.2991C44.0705 44.7487 44.0705 44.1983 44.0705 43.6479C44.0705 43.0975 44.0705 42.5471 44.0705 41.9967C44.0705 41.4463 44.0705 40.8959 44.0705 40.3455C44.0705 39.7951 44.0705 39.2447 44.0705 38.6943C44.0705 38.4895 44.0449 38.2591 44.0833 38.0543C44.0961 38.0159 44.0961 37.9647 44.0833 37.9263C44.0705 37.8879 44.0449 37.8495 44.0065 37.8239C43.9937 37.8239 43.9937 37.8239 43.9809 37.8239C43.9681 37.8239 43.9681 37.8367 43.9681 37.8367C43.8913 37.9007 43.8145 37.9775 43.7377 38.0415C43.2129 38.4255 42.7521 38.8863 42.2145 39.2447C41.3953 39.8079 40.4865 40.1535 39.5649 40.5119C39.3345 40.6015 39.0913 40.6271 38.8609 40.6783C35.7249 41.3951 32.3713 40.5759 29.9521 38.4127C26.8801 35.6479 26.6625 32.1023 26.6625 28.2495C26.6625 23.7695 26.6625 19.2895 26.6625 14.8095L29.1585 14.8351ZM29.1457 30.9631C29.1329 34.9823 32.4993 38.3615 36.5441 38.3999C40.6913 38.4383 44.0705 35.0207 44.0705 31.0271C44.0705 26.7519 40.6657 23.5135 36.5953 23.5263C32.4993 23.5391 29.2225 26.7775 29.1457 30.9631Z" fill="#F5F5F5"/>
<path d="M24.4737 32.6911C24.4737 34.6367 24.4865 36.5695 24.4865 38.5151C24.4865 41.3439 25.0241 44.6719 22.2593 46.4383C20.0321 47.8719 16.8321 47.1807 15.4497 44.9151C15.0273 44.2239 14.6945 43.4815 14.6945 42.6367C14.6945 42.4191 14.7585 42.3423 14.9761 42.3551C15.5265 42.3679 16.0641 42.3679 16.6145 42.3551C16.7681 42.3551 16.9217 42.3551 17.0625 42.3551C17.1009 42.3551 17.1521 42.3551 17.1905 42.3679C17.2673 42.3935 17.2929 42.4959 17.3185 42.5727C17.3441 42.6623 17.3697 42.7519 17.3825 42.8415C17.4209 43.0591 17.5105 43.2639 17.6129 43.4559C17.8177 43.8399 18.1249 44.1727 18.5089 44.3903C19.1489 44.7487 19.9553 44.7871 20.6209 44.4671C22.0801 43.7759 21.9393 42.1631 21.9393 40.7935C21.9393 38.8607 21.9393 36.9279 21.9393 34.9823C21.9393 31.1167 21.9393 27.2383 21.9265 23.3727C21.9265 23.0271 21.9265 22.6815 21.9265 22.3231C21.9265 22.0159 22.0161 21.9391 22.2977 21.9519C22.8865 21.9647 23.4753 21.9775 24.0641 21.9519C24.3969 21.9391 24.4865 22.0287 24.4865 22.3743C24.4737 25.8047 24.4865 29.2479 24.4737 32.6911Z" fill="#F5F5F5"/>
<path d="M23.2576 14.6943C24 14.5919 24.7808 15.4495 24.7424 16.2559C24.704 16.9855 24.1152 17.7279 23.2192 17.6895C22.1185 17.6383 21.7345 17.0367 21.6961 16.1919C21.6705 15.4623 22.3105 14.6175 23.2576 14.6943Z" fill="#F5F5F5"/>
</svg>
