<svg xmlns="http://www.w3.org/2000/svg" width="18" height="18" viewBox="0 0 18 18">
    <g fill="none" fill-rule="evenodd">
        <path d="M0 0H18V18H0z"/>
        <path fill="#4C576C" d="M9.008 16.714c-2.8.01-5.383-1.504-6.747-3.951C.897 10.316.968 7.32 2.446 4.94c.08-.154.24-.25.413-.249.174.002.332.1.41.255.077.155.062.341-.04.48-1.494 2.446-1.29 5.567.508 7.797 1.799 2.23 4.804 3.087 7.506 2.141 2.703-.946 4.52-3.49 4.539-6.356.004-1.01-.22-2.007-.653-2.918l-.037-.077c-.675-1.377-1.793-2.487-3.175-3.15-1.785-.846-3.85-.872-5.656-.071-.32.14-.63.304-.924.493-.139.09-.315.098-.462.023-.148-.076-.243-.225-.251-.39-.008-.166.072-.323.212-.413.332-.213.68-.4 1.04-.56 2.053-.908 4.398-.878 6.426.083 1.575.752 2.851 2.013 3.621 3.58l.04.08c1.14 2.39.974 5.196-.438 7.434-1.412 2.238-3.873 3.594-6.517 3.591zM4.16 4.244c-.18.183-.472.185-.654.005-.182-.18-.184-.473-.005-.655l.073-.059c.179-.118.422-.099.58.06.087.085.136.203.136.326s-.049.24-.136.327z"/>
        <path fill="#4C576C" d="M7.74 1.49L8.48 2C7.078 4.041 6.315 6.46 6.315 8.993c0 .467.026.93.077 1.387.819.142 1.655.215 2.503.215.782 0 1.553-.062 2.309-.182.053-.464.08-.933.08-1.406 0-2.467-.723-4.823-2.056-6.832L9.12 2.02l.743-.51c1.503 2.191 2.32 4.784 2.32 7.499 0 .412-.02.821-.057 1.227 1.317-.297 2.577-.777 3.744-1.425l.184-.104.449.78c-1.391.8-2.909 1.373-4.5 1.697-.307 1.87-1.01 3.64-2.063 5.208l-.107.158-.74-.512c.977-1.412 1.647-3.005 1.97-4.693-.713.1-1.437.152-2.169.152-.798 0-1.587-.06-2.362-.18.303 1.6.919 3.114 1.812 4.471l.108.161-.743.507c-1.087-1.596-1.811-3.403-2.122-5.313-1.379-.3-2.701-.789-3.932-1.45l-.192-.106.438-.786c1.115.62 2.313 1.088 3.566 1.39-.035-.395-.053-.794-.053-1.196 0-2.65.779-5.186 2.215-7.343l.11-.161z"/>
    </g>
</svg>
